<svg xmlns="http://www.w3.org/2000/svg" xmlns:xlink="http://www.w3.org/1999/xlink" viewBox="-213 76.3 571.6 113.7" xmlns:v="https://vecta.io/nano"><g fill="#010101"><path d="M-3.6 88.3c2.7 0 4.8-1.5 4.8-4.9 0-4-3.1-5.1-4.8-5.1-.6 0-1.3.1-1.5.1v15.9c0 2.7.8 2.9 2.8 2.9v.7c-.8 0-3.1-.1-4.2-.1l-4 .1v-.7c1.3 0 2.7-.2 2.7-2.1V80.6c0-2.3-1.2-2.4-2.7-2.4v-.8l3.3.1 3.7-.1c1 0 3.5 0 5.3 1.2 1.4.9 2.3 2.4 2.3 4.5 0 3.6-3 5.9-6.7 5.9h-1.1l.1-.7zM26 97.9c-1-.1-2.8-.1-2.9-.1l-2.1.1c-1.9-2.2-2.9-3.3-6.8-9.7h-2.8v5.6c0 3.5.8 3.5 3 3.5v.7c-.5 0-2.7-.1-4.3-.1s-2.6 0-4 .1v-.7c1.9 0 2.6 0 2.6-3.4V81.7c0-2.8-.3-3.5-2.5-3.5v-.8c.5 0 1.6.1 3.2.1s3.7-.1 4.3-.1c1.7 0 3.6.1 5.2 1.2 2.1 1.4 2.2 3.1 2.2 3.9 0 3.6-2.8 4.6-4.1 5.1 1.6 2.6 4.1 6.3 5.8 8 1.4 1.4 2.5 1.5 3.3 1.6l-.1.7zM11.4 87.2c.5.1 1.1.2 1.8.2 3.8 0 5-3 5-4.7 0-2.4-1.9-4.4-4.8-4.4-.3 0-.9 0-2 .2v8.7z"/><use xlink:href="#B"/><path d="M57 80.9c-.2-.7-.8-3-3.8-3-2.4 0-3.8 1.7-3.8 3.5 0 2.6 2.1 3.7 4.2 4.7 3 1.5 5.1 2.8 5.1 6.2 0 3.7-3.2 5.9-7.1 5.9-2.6 0-4-.8-4.6-1.1l-.5-4.1h.5c.3 1 1.4 4.4 5 4.4 2.6 0 4.2-1.8 4.2-4 0-2.6-2.1-3.7-4.1-4.7s-4.9-2.4-4.9-6.2c0-3.7 3.2-5.4 6.4-5.4.9 0 1.5.1 3.5.4l.4 3.5-.5-.1zm5.3-4.2c.1.2.2.3.4.5s.6.3 1.2.3h12.9c1 0 3.1 0 3.6-.7h.6l-.2 4.3h-.7c0-1.5-.2-2.5-2.8-2.5h-4.9v13.9c0 4.7.5 4.7 2.9 4.7v.7c-1.4 0-2.9-.1-4.3-.1l-4.2.1v-.7c2.8 0 3-.2 3-4.6V78.5h-4.3c-2.8 0-3.2.9-3.6 2.5h-.6c.3-1.5.3-2.3.3-4.3h.7zm28.8 1.4c-1.4 0-2.5.1-2.5 1.9v15.1c0 2 1.1 2.2 2.5 2.2v.7c-1.6 0-2.6 0-3.8-.1l-3.9.1v-.7c1.7 0 2.6-.2 2.6-1.8V81.1c0-3-.6-3-2.6-3v-.7l4 .1 3.7-.1v.7zm21.9 4.5h-.5c-.2-.8-.4-1.9-1.6-3-1.5-1.2-3.4-1.7-5.3-1.7-5.1 0-8.7 3.7-8.7 9.2 0 5.8 4 10.3 8.9 10.3.8 0 2.4-.2 4.1-1.2v-4.3c0-2.1-.8-2.1-2.5-2.2V89c1.1 0 3.2.1 4 .1.9 0 1.9-.1 3.3-.1v.7c-1.3 0-2 .2-2 1.7v4.2a2.18 2.18 0 0 0 .5.4v.5c-3.5 1.3-7.2 1.6-8.5 1.6-7.3 0-10.8-5.7-10.8-10.5 0-5.6 4.6-10.7 11.3-10.7 3.2 0 5.9.9 7.5 1.5l.3 4.2z"/><use xlink:href="#B" x="88.9"/></g><path d="M36.8 115c.4 0 .4-.7 0-.7-.5.1-.5.7 0 .7" fill="#56a3d9"/><path d="M44 137.5l-6.3-14.6c-1.2-2.8-1.7-3.3-5-3.3v-1.4l7.4.1 5.5-.1v1.4c-1 0-2.9.1-2.9 1.3 0 .4.4 1.5.6 2l3.4 8.9 3.3-7.3c.6-1.4 1-2.4 1-3.2 0-1.7-1.3-1.7-3.6-1.7v-1.4l6.1.1 4.6-.1v1.4c-2.8 0-3.8 1.3-4.8 3.4l-5.5 11.3 6.4 14.7 8.9-24.2c.9-2.4 1-3.1 1-3.4 0-1-.5-1.7-4-1.7v-1.4l5.9.1 4.2-.1v1.4c-2.5 0-3.1 1.5-3.9 3.7l-12.7 32.8h-1.4l-7.2-16-7.5 16H36l-13-32.4c-1.2-2.9-1.9-4.2-5.6-4.2v-1.4l7.3.1 6.3-.1v1.4c-2.4 0-3.3.5-3.3 1.2 0 .5 0 1 .6 2.4L38.7 149l5.3-11.5zm51.3 7.2c.7 2.1 2.2 6.6 3 7.7s2.4 1.4 4.1 1.4v1.4c-2 0-4.1-.1-6.1-.1l-7.7.1v-1.4h1c1.3 0 2.9-.3 2.9-1.7 0-.6-.4-2.1-.8-3.1l-2.7-7.7H76.5l-1.2 3.7c-.7 2.2-1.4 4.7-1.4 6.3 0 2.5 1.7 2.4 3.6 2.5h1.2v1.4c-2.1 0-4.2-.1-6.3-.1l-6.4.1v-1.4c3.2-.4 3.8-.8 5.1-3.8l2.2-5.9 6.8-18.9c.4-1.2 1.1-3.2 1.1-4.8 0-.5 0-1-.1-1.4 1.1-.5 2.3-1.1 3.1-2.3h.9l10.2 28zm-18.1-5.5h10.9l-5.7-15.6h-.1l-5.1 15.6zm56.2-14H132c-.2-2.9 0-4.8-4.2-4.8h-8.1V150c0 3.7 2 3.8 4.8 3.8v1.4c-2.5 0-4.8-.1-7.2-.1l-7.7.1v-1.4c2.8-.1 4.8-.1 4.8-3.8v-29.6h-6.9c-4.8 0-5 1.3-5.9 4.8h-1.4l.6-8.4h1.1c.6 1.4 2 1.5 3.3 1.5h24.1c1.9 0 3.2-.5 3.4-1.5h1.1l-.4 8.4zm13.2 9.8h7c4.3 0 4.3-3.3 4.5-4.6h1.1l-.2 5.9.2 5.9h-1.1c0-5.1-1.7-5.1-5.8-5.1h-5.7v9c0 5.9.2 7.4 5.5 7.4h3.3c5.2-.3 7.5-1 9.6-6.6l1.3.2c-.8 2.7-1.6 5.4-2.2 8.1-5.3 0-10.6-.1-15.9-.1l-11.8.1v-1.4c4.6 0 5-.8 5-6v-23.5c0-4.3-.8-4.6-5-4.7v-1.4c3.6.1 7.2.1 10.7.1l15.3-.1v7.9l-1.1.3c-.8-5-3.2-6.5-8.5-6.5h-6.2V135zm32.4 2.7V150c0 3.7 2 3.8 4.8 3.8v1.4c-2.5 0-4.8-.1-7.2-.1l-7.7.1v-1.4c2.7.2 4.8-.5 4.8-3.6v-26.8c0-3.7-2-3.8-4.8-3.8v-1.4l8.1.1 7.1-.1c10 0 12.2 5.6 12.2 9.4 0 4.5-3.4 7.8-7.5 9.1 4.8 7.1 7.4 11.3 9.6 13.8 1.7 1.9 3.3 3.3 6 3.3v1.4c-1.3 0-2.7-.1-4-.1-1.5 0-3 .1-4.5.1-4.8-5.3-8.4-11.5-12.2-17.5H179zm3.2-17.8c-1.3 0-2.2.2-3.2.3v15.5c.8.2 1.9.3 2.8.3 6.5 0 9.1-4.3 9.1-8.1 0-4.6-2.4-8-8.7-8m35.1 30.1c0 3.7 2 3.8 4.8 3.8v1.4l-7.5-.1-7.5.1v-1.4c4.6 0 5-.8 5-6v-23.5c0-4.3-.8-4.6-5-4.7v-1.4l11.5.1 14.4-.1.3 7.5-1.2.2c-.5-4.5-2.8-6-8.5-6h-6.3V135h6.3c4.3 0 4.7-.6 5.4-4.4h1.2c-.1 1-.2 3.9-.2 5.8a94.47 94.47 0 0 0 .2 5.6h-1.1c-.6-3.7-.7-4.8-5.4-4.8h-6.5V150h.1zm39.8-32.6c10.6 0 18.9 9 18.9 19.1 0 9.7-7.5 19.5-19.1 19.5-10.6 0-18.9-9-18.9-19.1 0-9.7 7.5-19.5 19.1-19.5m.4 36.9c7.7 0 12.6-6.7 12.6-16.3 0-8.1-4.7-18.9-13.7-18.9-7.7 0-12.6 6.7-12.6 16.3 0 8.1 4.7 18.9 13.7 18.9m33.5-16.6V150c0 3.7 2 3.8 4.8 3.8v1.4c-2.5 0-4.8-.1-7.2-.1l-7.7.1v-1.4c2.7.2 4.8-.5 4.8-3.6v-26.8c0-3.7-2-3.8-4.8-3.8v-1.4l8.1.1 7.1-.1c10 0 12.2 5.6 12.2 9.4 0 4.5-3.4 7.8-7.5 9.1 4.8 7.1 7.4 11.3 9.6 13.8 1.7 1.9 3.3 3.3 6 3.3v1.4c-1.3 0-2.6-.1-4-.1-1.5 0-3 .1-4.5.1-4.8-5.3-8.4-11.5-12.2-17.5H291zm3.2-17.8c-1.3 0-2.2.2-3.2.3v15.5c.8.2 1.9.3 2.8.3 6.5 0 9.1-4.3 9.1-8.1 0-4.6-2.5-8-8.7-8m29.6 4.2c0-4.8-2.5-4.5-4.9-4.5v-1.4l6.3.1 9.2-.1c13.7 0 21.2 9.2 21.2 18.6 0 5.2-3.1 18.4-21.8 18.4-2.7 0-5.2-.1-7.7-.1l-7.1.1v-1.4c3.2-.3 4.7-.4 4.9-4v-25.7h-.1zM329 149c0 4.1 2.9 4.6 5.5 4.6 11.5 0 15.2-8.6 15.2-16.5 0-9.9-6.4-17.1-16.6-17.1-2.2 0-3.2.2-4.1.2V149z" fill="#010101"/><defs><path id="A" d="M-21.9 112.6l-13.9 25.3 14 24.1 27.1-49.4h-27.2zm-67-5.7h0l14 24.1 13.2-24.1h-27.2zm18 31l14 24.1 27.1-49.4-14-24.1-27.1 49.4z"/><path id="B" d="M41.4 81.7c-.2-2.4-1.9-3.3-4.3-3.3h-4v8.3h4.5c1.9 0 2-1.4 2-2.5h.7v6.3h-.7c0-1.6-.1-2.7-2.4-2.7h-4v6.5c0 2.4 1.5 2.7 3.4 2.7 1.1 0 4.1 0 5-.4 1.2-.6 1.8-1.6 2.4-2.9l.5.1-1 4.2c-2.8 0-5.3-.1-7.8-.1l-7.8.1v-.7c1.6 0 2.6-.4 2.6-2.7V80.3c0-2-1-2.2-2.6-2.2v-.7l7 .1 7.1-.1.1 4.1-.7.2z"/><path id="C" d="M232.2 183.9l.1 4.4c.1.6.2 1 .8 1.1.3 0 .7.1.9.1.1 0 .2.1.2.1 0 .1-.1.2-.3.2-1.1 0-2.4-.1-2.5-.1l-2 .1c-.2 0-.3 0-.3-.2 0-.1 0-.1.2-.1s.4 0 .6-.1c.4-.1.5-.5.6-1.1.1-.9.1-2.5.1-4.4v-8c0-.7-.2-1-.7-1.1-.2-.1-.5-.1-.6-.1s-.2 0-.2-.1.1-.2.3-.2c.7 0 1.9.1 2 .1s1.4-.1 2-.1c.2 0 .3 0 .3.2 0 .1-.1.1-.2.1s-.3 0-.5.1c-.5.1-.7.4-.8 1.2v7.9z"/><path id="D" d="M261.6 180.3v-4.4c0-.7-.2-1-.9-1.2-.2 0-.5-.1-.7-.1-.1 0-.2 0-.2-.1s.1-.2.3-.2h6.9c.4 0 .7-.1.9-.1.1 0 .2-.1.3-.1s.1.1.1.2-.1.4-.2 1c0 .2-.1 1.1-.1 1.3 0 .1-.1.2-.1.2-.1 0-.2-.1-.2-.3 0-.1 0-.5-.1-.7-.1-.3-.3-.6-1.4-.7-.3 0-2.6-.1-2.8-.1-.1 0-.1.1-.1.2v5.6c0 .1 0 .2.1.2h3.2c.5 0 .8-.1 1-.3.1-.2.2-.3.3-.3s.1 0 .1.2c0 .1-.1.5-.2 1.1 0 .4-.1 1.2-.1 1.3 0 .2 0 .4-.1.4s-.1-.1-.1-.2c0-.2 0-.4-.1-.7s-.3-.6-1.1-.7c-.5-.1-2.6-.1-2.9-.1-.1 0-.1.1-.1.1v5.3c.1 1.4.4 1.7 2.4 1.7.5 0 1.4 0 1.9-.2s.8-.6.9-1.5c0-.2.1-.3.2-.3s.1.2.1.3c0 .2-.2 1.5-.3 2s-.3.5-1.1.5c-1.5 0-2.6 0-3.4-.1-.8 0-1.3-.1-1.6-.1h-2c-.2 0-.3 0-.3-.2 0-.1 0-.1.2-.1s.4 0 .6-.1c.4-.1.5-.5.6-1.1.1-.9.1-2.5.1-4.4v-3.2z"/></defs><linearGradient id="E" gradientUnits="userSpaceOnUse" x1="-88.9" y1="125.25" x2="5.3" y2="125.25"><stop offset="0" stop-color="#cfa92b"/><stop offset=".106" stop-color="#dfb822"/><stop offset=".323" stop-color="#fcd212"/><stop offset=".418" stop-color="#e8c11a"/><stop offset=".666" stop-color="#b7962f"/><stop offset=".745" stop-color="#c29f2a"/><stop offset=".882" stop-color="#deb81e"/><stop offset="1" stop-color="#fcd212"/></linearGradient><use xlink:href="#A" fill="url(#E)"/><g fill="#010101"><path d="M193.2 187h0l3.2-10.3c.2-.8.2-1 .2-1.3 0-.4-.2-.6-1.2-.6-.1 0-.2-.1-.2-.1 0-.1.1-.1.3-.1l2.1.1c.1 0 1-.1 1.6-.1.2 0 .3 0 .3.1s-.1.2-.2.2-.5 0-.7.1c-.6.2-.9 1.1-1.3 2.2-.9 2.6-2.9 9-3.7 11.3-.5 1.5-.6 1.7-.9 1.7-.2 0-.3-.3-.6-1.1l-4-11.3-4.2 11.3c-.3.9-.4 1.1-.7 1.1-.2 0-.3-.2-.7-1.6l-3.6-12c-.3-1.1-.6-1.4-1.1-1.6-.3-.1-.8-.1-.9-.1s-.2 0-.2-.1.1-.1.3-.1c1.1 0 2.2.1 2.4.1s1.1-.1 2.1-.1c.3 0 .4.1.4.1 0 .1-.1.1-.2.1-.2 0-.5 0-.8.1-.1.1-.3.2-.3.5s.2 1 .4 1.9c.3 1.3 2.4 8.7 2.7 9.8h0l4.3-11.6c.3-.8.4-.9.5-.9s.3.3.5 1l4.2 11.3zm26-3.1l.1 4.4c.1.6.2 1 .8 1.1.3 0 .7.1.9.1.1 0 .2.1.2.1 0 .1-.1.2-.3.2-1.1 0-2.4-.1-2.5-.1l-2 .1c-.2 0-.3 0-.3-.2 0-.1 0-.1.2-.1s.4 0 .6-.1c.4-.1.5-.5.6-1.1.1-.9.1-2.5.1-4.4v-2.1c0-.1-.1-.1-.1-.1h-8.6c-.1 0-.1 0-.1.1v2.1l.1 4.4c.1.6.2 1 .8 1.1.3 0 .7.1.9.1.1 0 .2.1.2.1 0 .1-.1.2-.3.2-1.1 0-2.4-.1-2.5-.1l-2 .1c-.2 0-.3 0-.3-.2 0-.1 0-.1.2-.1s.4 0 .6-.1c.4-.1.5-.5.6-1.1.1-.9.1-2.5.1-4.4v-8c0-.7-.2-1-.9-1.2-.2 0-.5-.1-.7-.1-.1 0-.2 0-.2-.1s.1-.2.3-.2l2.3.1c.1 0 1.4-.1 2-.1.2 0 .3 0 .3.2 0 .1-.1.1-.2.1s-.3 0-.5.1c-.5.1-.7.4-.8 1.2v4.8c0 .1.1.1.1.1h8.6c.1 0 .1 0 .1-.1v-4.8c0-.7-.2-1-.9-1.2-.2 0-.5-.1-.7-.1-.1 0-.2 0-.2-.1s.1-.2.3-.2l2.3.1c.1 0 1.4-.1 2-.1.2 0 .3 0 .3.2 0 .1-.1.1-.2.1s-.3 0-.5.1c-.5.1-.7.4-.8 1.2v8z"/><use xlink:href="#C"/><path d="M247.8 183.9l.1 4.4c.1.6.2 1 .8 1.1.3 0 .7.1.9.1.1 0 .2.1.2.1 0 .1-.1.2-.3.2-1.1 0-2.4-.1-2.5-.1l-2 .1c-.2 0-.3 0-.3-.2 0-.1 0-.1.2-.1s.4 0 .6-.1c.4-.1.5-.5.6-1.1.1-.9.1-2.5.1-4.4v-8.6h-3c-1.3 0-1.7.2-2.1.6-.2.3-.3.5-.3.6-.1.2-.1.2-.2.2s-.1-.1-.1-.2c0-.2.4-1.9.4-2.1 0-.1.1-.4.2-.4s.3.2.9.2c.6.1 1.4.1 1.6.1h7.6c.6 0 1.1 0 1.4-.1.3 0 .5-.1.6-.1s.1.1.1.2l-.1 2.2c0 .2-.1.3-.1.3-.1 0-.1-.1-.2-.3v-.2c-.1-.6-.5-1.1-2.5-1.1h-2.6v8.7z"/><use xlink:href="#D"/><path d="M278 180.3v-4.4c0-.7-.2-1-.9-1.2-.2 0-.5-.1-.7-.1-.1 0-.2 0-.2-.1s.1-.2.3-.2h7.3c.4 0 .7 0 .9-.1.1 0 .2-.1.3-.1s.1.1.1.2-.1.4-.2 1c0 .2-.1 1.1-.1 1.3 0 .1-.1.2-.2.2s-.1-.1-.1-.2c0-.2-.1-.5-.2-.8s-.6-.6-1.4-.6l-3.1-.1c-.1 0-.2.1-.2.2v5.6c0 .1 0 .2.1.2h3.5c.5 0 .8-.1.9-.4.1-.1.1-.2.2-.2s.1.1.1.2-.1.5-.2 1.1c0 .4-.1 1.2-.1 1.4s0 .4-.1.4-.1-.1-.1-.2c0-.2 0-.5-.1-.7-.1-.3-.4-.6-1.1-.7-.5-.1-2.7-.1-3.1-.1-.1 0-.1 0-.1.2v1.7l.1 4.4c.1.6.2 1 .8 1.1.3 0 .7.1.9.1.1 0 .2.1.2.1 0 .1-.1.2-.3.2-1.1 0-2.4-.1-2.5-.1l-2 .1c-.2 0-.3 0-.3-.2 0-.1 0-.1.2-.1s.4 0 .6-.1c.4-.1.5-.5.6-1.1.1-.9.1-2.5.1-4.4v-3.5h.1z"/><use xlink:href="#C" x="63.6"/><use xlink:href="#D" x="45.4"/><path d="M325.2 184c0 3 .1 4.3.4 4.6s.9.5 2.4.5c1.1 0 2 0 2.5-.6.3-.3.5-.8.5-1.2 0-.2.1-.3.2-.3s.1.1.1.3-.1 1.4-.3 2c-.1.5-.2.5-1.3.5-1.5 0-2.5 0-3.4-.1-.9 0-1.5-.1-2.1-.1h-2c-.2 0-.3 0-.3-.2 0-.1 0-.1.2-.1s.4 0 .6-.1c.4-.1.5-.5.6-1.1.1-.9.1-2.5.1-4.4v-7.8c0-.7-.2-1-.9-1.2-.2 0-.5-.1-.7-.1-.1 0-.2 0-.2-.1s.1-.2.3-.2l2.3.1 2.2-.1c.2 0 .3 0 .3.2 0 .1-.1.1-.2.1s-.4 0-.7.1c-.6.1-.8.4-.8 1.2v8.1h.2zm14.3-3.7v-4.4c0-.7-.2-1-.9-1.2-.2 0-.5-.1-.7-.1-.1 0-.2 0-.2-.1s.1-.2.3-.2l2.3.1 2.7-.1c2 0 5.7-.2 8.1 2.3 1 1.1 2 2.7 2 5.2 0 2.6-1.1 4.5-2.2 5.7-.9.9-2.7 2.3-6.1 2.3-.9 0-1.9-.1-2.8-.1-.9-.1-1.6-.1-1.7-.1h-2c-.2 0-.3 0-.3-.2 0-.1 0-.1.2-.1s.4 0 .6-.1c.4-.1.5-.5.6-1.1.1-.9.1-2.5.1-4.4v-3.4zm1.7 2.2v4.4c0 .5.1 1.3.2 1.5.3.4 1.1.8 3.4.8 1.9 0 3.6-.7 4.8-1.9 1.1-1 1.6-3 1.6-4.8 0-2.6-1.1-4.2-1.9-5.1-1.9-2-4.2-2.3-6.6-2.3-.4 0-1.2.1-1.3.1-.2.1-.2.2-.2.4v6.9z"/></g><defs><path id="F" d="M1.4 181.2l-30.1.2-30.1.3-15.1.3-7.5.1-7.5.2 7.5.2 7.5.1 15.1.3 30.1.3 30.1.2 30.1.1 30.1-.1 30.1-.2 30.1-.3 15.1-.3 7.5-.1 7.5-.2-7.5-.2-22.6-.3-30.1-.3-30.1-.2-30.1-.1H1.4z"/></defs><clipPath id="G"><use xlink:href="#F"/></clipPath><linearGradient id="H" gradientUnits="userSpaceOnUse" x1="-88.887" y1="182.201" x2="152.003" y2="182.201"><stop offset="0" stop-color="#cfa92b"/><stop offset=".106" stop-color="#dfb822"/><stop offset=".323" stop-color="#fcd212"/><stop offset=".418" stop-color="#e8c11a"/><stop offset=".666" stop-color="#b7962f"/><stop offset=".745" stop-color="#c29f2a"/><stop offset=".882" stop-color="#deb81e"/><stop offset="1" stop-color="#fcd212"/></linearGradient><path d="M-88.9 181.1H152v2.2H-88.9z" clip-path="url(#G)" fill="url(#H)"/><defs><path id="I" d="M232.7 85.6l-25.2.2-25.2.3-18.9.3-6.3.2 6.3.2 18.9.3 25.2.3 25.2.2 25.2.1 25.2-.1 25.2-.2 25.2-.3 12.6-.3 6.3-.1 6.3-.2-6.3-.2-6.3-.1-12.6-.3-25.2-.3-25.2-.2-25.2-.1-25.2.3z"/></defs><clipPath id="J"><use xlink:href="#I"/></clipPath><linearGradient id="K" gradientUnits="userSpaceOnUse" x1="157.201" y1="86.606" x2="358.589" y2="86.606"><stop offset="0" stop-color="#cfa92b"/><stop offset=".106" stop-color="#dfb822"/><stop offset=".323" stop-color="#fcd212"/><stop offset=".418" stop-color="#e8c11a"/><stop offset=".666" stop-color="#b7962f"/><stop offset=".745" stop-color="#c29f2a"/><stop offset=".882" stop-color="#deb81e"/><stop offset="1" stop-color="#fcd212"/></linearGradient><path d="M157.2 85.5h201.4v2.2H157.2z" clip-path="url(#J)" fill="url(#K)"/><path d="M-105.2 81.1h1.7V186h-1.7zm-107.6 94h92.7v-1.6h-92.7v1.6zm0-41h92.7v-1.6h-92.7v1.6zm0 54.8h92.7v1.6h-92.7z"/><g fill-rule="evenodd"><path d="M-149.2 166.9c-.2-.1-.4-.3-.4-.6v-4.5c0-.2.1-.4.2-.4.2-.2.7-.2.9-.2 1.9 0 3 1.7 3 3.1 0 1.2-.6 2.7-2.7 2.8-.3-.1-.7-.1-1-.2m2.1-6.1c-1-.2-1.9-.2-2.9-.1-.4 0-.8.1-1.2.1-.2 0-.6 0-.6.3s.2.2.5.4c.2.2.1.5.1 1.7v6.4c0 .1-.1.1-.2.2l-.1.1c-.2.1-.2.2-.2.3 0 .2.1.2.3.2h2.5c.1 0 .2 0 .3-.1v-.1c0-.1-.1-.2-.3-.3-.1 0-.1-.1-.2-.1-.1-.1-.3-.1-.3-.2s-.1-.2-.1-.3v-1.6c0-.2 0-.2.1-.2h.1c.9 0 1.8.1 2.7-.1s1.5-.4 1.9-.8c1.5-1.2 1.3-3.3.1-4.5-.7-.7-1.6-1.2-2.5-1.3m-18.9.3c1.6 0 3 1.9 3.1 4.3s-1.2 4.3-2.8 4.3-3-1.9-3.1-4.3 1.2-4.3 2.8-4.3m.2-.8c2.7 0 4.9 2.3 4.9 5.1s-2.2 5.1-4.9 5.1-4.9-2.3-4.9-5.1 2.2-5.1 4.9-5.1m-14.5 8.4v-2s0-.2.1-.3.2-.2.2-.3c.1-.2.3-.4 0-.6h-2.4s-.2.1-.3.3c0 .1 0 .2.1.3l.2.2s.3.2.3.8v1.4c0 .1 0 .3-.1.5s-.3.4-.5.5c-.5.1-4.1.4-4.5-2.9-.3-2.6.2-4.2 1.4-4.9.8-.5 1.7-.5 2.5-.2.4.1.8.4 1.1.6.2.2.4.5.6.7.1.1.3.2.5.2s.4-.1.3-.3c0-.2-.1-.4-.2-.6-.1-.3-.3-.7-.4-1-.1-.2-.3-.4-.7-.4-.5.2-.8.1-1.2 0-.5-.1-3.5-.6-5.2 2.2-1.6 2.9-.5 6.7 2.3 7.3 2.1.3 4.2.3 5.1.3.2 0 .5 0 .8-.1.2 0 .4-.2.4-.4 0-.1 0-.2-.1-.3 0-.4-.3-.6-.3-1m9.6.4a15.98 15.98 0 0 1-2-2.4s1.8-.9 1.8-2.6c.1-1.6-.8-2.6-2.4-3.3-1.5-.5-3.3-.5-5-.3-.3 0-.5 0-.8.1-.4.1-.5.4-.5.5 0 .2.1.2.2.4.2.1.4.4.4.9v6.7s0 .5-.2.6c-.1.1-.3.1-.4.4 0 .1 0 .3.1.4s.3.1.4.1h2.3c.1 0 .1 0 .2-.1.1 0 .2-.1.2-.2 0-.2-.1-.3-.2-.4-.2-.2-.4-.1-.4-.5v-2.2h2l1.6 1.7c.2.2.3.4.1.6s-.3.6 0 .8c.2.2.6.1 1.2.1h1.7c.2 0 .4-.2.4-.4 0-.1 0-.3-.2-.4-.1-.1-.2-.2-.3-.2 0-.1-.1-.2-.2-.3m-2.2-4.4c-.6 1.9-3.2 1.8-3.9 1.7-.4-.1-.4-.3-.4-.6v-3.9c0-.5.2-.6.5-.7 1.1-.3 2.7.1 3.4 1.1.5.4.8 1.2.4 2.4m19.3-3.2c0-.2.1-.2.3-.3.1-.1.3-.2.2-.4 0-.1-.2-.2-.3-.2-.4 0-1 0-1.6.1-.3.1-.3.2-.3.4s.3.2.4.2c.2.1.3.3.4.5.1.3.3 3.7.4 4.9 0 .3.1.5.1.8 0 .5-.1 1.4-.9 1.9-.6.4-1.3.4-2 .3-1.6-.3-1.8-1.4-1.8-2.2l.3-5.6v-.2c0-.1.1-.1.2-.2.1 0 .2-.1.3-.2.1-.2 0-.3-.1-.4s-.2-.1-.3-.1h-2.1c-.1 0-.2.1-.2.3.2.3.3 0 .3.6l-.2 4.9c0 .4 0 .8.1 1.2.2.8.6 2 2.1 2.5.4.1.9.2 1.4.2 2.4.1 4.1-1 3.9-3.1-.1-1.8-.4-4.3-.6-5.4v-.5m13.7-.6c-.7-.1-1.3-.2-1.9-.5-2.4-1.2-.5-3.2-.5-3.2.2.1 4.1.2 5.7.2.4 0 .8 0 1.2.2.5.2 1 .6 1.1 1.2 0 .4-.1.8-.4 1-.3.3-.6.5-1 .7-1.1.5-2.9.5-4.2.4m1.6-15.3c.8.4 1.3 1.2 1.5 1.7a4.08 4.08 0 0 1-.2 3.4c-.6 1.1-1.5 1.5-2.7 1.5-1.4 0-3-.9-3.1-3.2 0-1.8.6-2.7 1.3-3.1.8-.6 2.2-.7 3.2-.3m3.4 9.4c-1.7-.3-3.1-.3-4.1-.3-1.3 0-2.1-.1-2.3-.1-.5 0-.8 0-1.1-.2-.6-.3-.6-.9.3-1.5 0 0 2.1.5 4.2.2 1.3-.2 2.5-.8 3.2-1.9.6-.9.8-2 .7-3.1-.2-1.8-1.8-3.2-3.6-3.6 0 0 0-1 .7-1.3.4-.1 1 .1 1.4.1 1.1.1 1.5-1.5.6-2-.6-.5-2.1-.5-3.2 1.1-.4.5-.6 1.3-.7 1.4 0 .1-.2.5-.3.5 0 0-2.2-.1-4 1-1.9 1.1-2.9 3.3-1.8 5.4.4.7.9 1.3 1.2 1.4 0 0-1.1.6-1.5 1.7-.3.7-.3 1.7.2 2.4a1.64 1.64 0 0 0 1 .7s-3.6 2.3-.8 4.3c1.3.9 3.4 1.3 5.6 1.3 2.3 0 6-.3 7.3-2.6.9-1.9.5-4.3-3-4.9m-12.7 2.3c-.3-.2-.4-.9-.4-1.3v-10.1c0-1.1-.9-.5-.9-.5s-1.5.7-2.3 1.3c-.1.1-.3.2-.4.4-.3.5.4.8.7.9l.3.3a1.34 1.34 0 0 1 .1.5v7.4c0 .5 0 .8-.1 1-.2.4-.6.6-1 .9-.2.2-.3.4-.1.6.1.2.5.2.5.2h4.2c.3 0 .4-.1.5-.3s.1-.5-.1-.6c-.3-.3-.7-.4-1-.7m-.9-15.3c.3-.2.5-.4.7-.7s.2-.6.1-.9c-.2-.5-.8-.7-1.5-.6-.9.2-1.6.9-1.6 1.6-.1 1.2 1.6 1.1 2.3.6m-4.8 14.9c-.5.3-1.3.5-1.8.4-1-.2-1-1.5-1-1.5v-8.7h3.2v-1.5h-3.3l-.1-1.7v-1.7c0-.4-.1-.8-.6-.9-.6-.1-.8.8-1.1 1.6-.2.6-.4 1.1-.7 1.6-.3.4-.6.9-.9 1.2-.2.2-.4.4-.5.7-.2.5.3.5.3.5l.7.1c.2 0 .2.3.2.3v8c0 1.8.6 3 2.4 3.4.6.1 1.2.1 1.9 0 1.5-.3 2.1-1.1 2.3-1.6.1-.2.1-.4 0-.5s-.2-.1-.3-.1c-.3.1-.5.3-.7.4m-8.8-6.1c-.9-.4-2.3-.9-3.7-1.2-2.4-.5-3.6-1.1-3-2.6s3.1-1 4.3-.3c.8.5 1.4 1 1.8 1.3.2.1.4.3.6.5.1.1.4.2.6.1.5-.2 0-1-.2-1.3l-1.4-2.2s-.4-.5-1-.1c0 0-.6.5-1.1.4-.4-.2-3-1.1-5.1 1-.3.3-.5.6-.7 1.1-.6 1.8.4 3.1 1.1 3.6.8.6 3.7 1.2 4.3 1.4.5.2 3.6.6 3.5 2.6s-2.2 2.5-3.2 2.3c-1-.1-3-.5-5.3-2.7 0 0-.4-.4-.7-.4-.2 0-.3.1-.4.3s0 .4.1.5c.2.2.3.4.5.6.6.8 2.5 2.9 2.5 2.9s.4.5.8 0c.3-.3.5-.4.7-.4s.4.1.5.2c1 .3 4.6.9 6.4-1.5 1.5-2.2.5-4.1-.3-4.9-.4-.6-1-.9-1.6-1.2m-14-.2l-5.7-.1v-.2c.1-2.8 1-3.8 2.1-4.2.9-.3 2-.4 2.8.1.6.3 1 .8 1.3 1.6.2.6.4 1.3.4 2 0 .2 0 .4-.1.5-.2.4-.5.3-.8.3m-2.3-5.8c-3.6-.2-6.7 2.9-6.7 6.9 0 4.1 3.1 6.7 6.8 6.8 1.8.1 3.1-.4 4-1l.3-.3c.1-.3.1-.6-.1-.8s-.3-.1-.5 0c-.1.1-.3.2-.5.3-.4.2-.8.3-1.2.4-1.9.3-5.6-.4-5.8-5.3h9.1c.5 0 .7-.1.7-.4.1-3-1.7-6.4-6.1-6.6m-6.6.5c-.1 0-.3-.1-.4-.1-1-.2-2.8-.3-5.1 1.6l-.5.5v-1.2c0-.3 0-.7-.1-1-.1-.2-.4-.4-1.2.1l-1 .6a9.13 9.13 0 0 0-1.3.8c-.2.1-.2.3-.2.4 0 .2.2.4.5.5.6.2.6.8.6 1.7v5.6c0 1.2 0 2-.3 2.5-.2.3-.7.4-1 .6-.1.1-.1.2-.2.3 0 .2 0 .3.2.4.1 0 .2.1.4.1h4.6c.2 0 .6-.1.6-.4 0-.2-.1-.3-.2-.4-.3-.2-.7-.4-.9-.7-.1-.2-.1-.4-.1-.7l-.2-4.7c0-.5-.2-1.7.5-2.8 1.6-2.6 3.6-1.6 3.6-1.6.8.4.5 1 1 1.3.4.2.5.1.7-.3.3-.8.9-2.1.7-2.6-.3-.4-.5-.4-.7-.5m-22 5.8c-.4-.2-.9-.7-.9-1.4v-9.9c0-.5.2-.8.4-1 .4-.4 1.5-.4 2-.4 4.3.1 6.5 3.8 6.5 6.8 0 2.6-1.3 5.9-5.8 6.1-.7 0-1.6.1-2.2-.2m4.5-13.5c-2.1-.4-4.2-.4-6.3-.3l-2.7.1c-.4 0-1.2.1-1.3.6 0 .6.5.5 1 .9s.3 1.2.3 3.8v10.9l-.1 2.9c0 .2 0 .4-.1.5-.1.3-.2.3-.5.4l-.3.1c-.4.2-.5.4-.5.6 0 .4.2.4.6.4h5.5c.2 0 .4 0 .6-.2.1-.1.1-.2.1-.3 0-.2-.2-.4-.5-.6-.1-.1-.2-.1-.4-.2-.3-.1-.6-.3-.7-.5-.1-.1-.2-.3-.2-.7v-3.6c0-.4.1-.5.2-.5h.2c2 .1 3.9.1 5.9-.2 1.9-.3 3.3-1 4.3-1.7 3.2-2.6 2.9-7.2.3-9.9-1.5-1-3.4-2-5.4-2.5m78.5 13l-5.7-.1v-.2c.1-2.8 1-3.8 2.1-4.2.9-.3 2-.4 2.8.1.6.3 1 .8 1.3 1.6.2.6.4 1.3.4 2 0 .2 0 .4-.1.5-.1.4-.4.3-.8.3m-2.2-5.8c-3.6-.2-6.7 2.9-6.7 6.9 0 4.1 3.1 6.7 6.8 6.8 1.8.1 3.1-.4 4-1l.3-.3c.1-.3.1-.6-.1-.8s-.3-.1-.5 0c-.1.1-.3.2-.5.3-.4.2-.8.3-1.2.4-1.9.3-5.6-.4-5.8-5.3h9.1c.5 0 .7-.1.7-.4.1-3-1.8-6.4-6.1-6.6m-26.1-27.3c0 13.5-10.9 24.4-24.5 24.4-13.5 0-24.4-10.9-24.4-24.4 0-13.6 10.9-24.5 24.4-24.5a24.41 24.41 0 0 1 24.5 24.5"/><path d="M-177.9 90.3h0c.4-.3 1.3-1.3 1.5-1.4.3-.3 1.2.7.7 1.4-.2.3-1.6 1.6-1.6 1.6l1.8-1.6c.2 0 .8.6.6 1.2s-1.3 1.7-1.3 1.7.9-.8 1-.7c.2.1.6.4.5.6 0 .1 0 .1-.1.2.1 0 .1-.1.2-.1.2 0 .5.4.4.7l-.1.2c.1-.2.2-.2.4 0 .1.1.2.2.2.4.1.1-.1.3-.2.5.2-.2.4.2.3.5s-.3.6-.3.6.3-.3 1-.6 1.6-1.1 3-1.6c1.3-.6 1.8-1 2.4-1.4s1.1-.5 1 .2c-.1.6-.8 1.3-.7 1.4.1.2.6-.2 1.2-.7l2.5-2c1-.6 2.3-.8 2.8-1s1.5-.9 2.8-1.2l5.4-1.5c.3-.1.6-.3.7 0 .3.5.1 1.1-.5 1.6-.8.6-1.9.8-2.5 1.1l2.2-.6c.3 0 .4.1.4.3.1.3-.3.9-.8 1.4-.9.9-2.8 1.3-4.1 1.4 1.1 0 2.9-.6 2.2.9a2.34 2.34 0 0 1-1.2 1.2c-.4.2-.6.2-1.1.3-.1 0-2.7.4-2.8.4l2.3-.3c.2 0 .4 0 .6.2.5.5.8 1-.2 1.5-.4.2-1 .3-1.6.4-.2 0-3 .2-3.2.2-.1.1 2.8-.1 3-.1s.6.1.7.3 0 .6-.7.8-1 .2-1.6.3h-2.6c-.1 0 2.4.1 2.6.2.4.1.7 0 .8.4 0 .8-.3 1.1-.6 1.2-.1.1-.2 0-.4 0l-3.4-.3 3.5.5c.3 1-.7 1.4-1.6 1.5-.1 0-1.7-.1-1.8-.2l1.3.2c.2 0 .3 0 .3.2.1.2.1.5-.1.7-.1.1-.2.1-.3.2-.2 0-.4.1-.9.1 0 0 .9-.1 1 .1.3.3.1.6-.2.8 0 0-.2.1-.5 0 .1 0 .5 0 .6.4 0 .3-.3.5-.6.5h-.6l.6.1c.2.1.3.2.2.4-.1.1-.2.2-.3.2h-.8s.7 0 .8.1c.3.1.8.4.6.7-.3.4-1.3.2-1.3.2s1.7.8 1.5 1c0 0-.3.2-2-.1 0 0 1.2.6 1 .9s-.7.3-1.3.1-.6-.3-.6-.3c.2.1.8.6 1.1 1.1s.4 1-.3.6l-1-.6s1 .7 1 .8c0 .2-.5.2-.5.2s.6 0 .9.1c.1 0 .1.3.1.4-.1.3-1 .5-1 .5s.7 0 .4.3-.6.4-.6.4.8-.1 1 0 .1.7-.7.8c.6.4-.1.6-.6.6 0 0 .7-.1.6.3 0 .4-.6.2-.6.2s.7.4.6.7c-.1.4-1.4-.1-1.4-.1s1.4.6 1.5.9.3.6.7.7 1.3.7 1.5 1 1.5 1.2 2.5 1.7c1.1.5 3.1 1.6 4 2.2.8.7 1.1 1.1.8 1s-1.8.1-1.8.1 1.8 1.2 3.5 1.7c1 .3 1.7.6 2.1.8.3.2.6.3 1.1.6-.1 0-.4 0-.5-.1-.1 0-.1 0-.1.1l.2.2c-.3 0-.4-.1-.6-.3l.1.4c-.2-.2-.3-.2-.4-.4v.3c-.4-.3-.4-.4-.8-.5l-.7-.2c-.2 0 .6.3.5.4s-.1.3-.1.3c-1.3-.5-1.8-1-3.1-1.4-.4-.1-.8-.5-1.2-.7-.6-.3-.6.4-.3.5l.9.6c-.2-.1-.6-.1-1-.2-.4 0-.9 0-1.1-.3-.3-.2-.4-.7-.8-1.2l-1.2-1.5c-.6-.6-.7-.2-.7-.2s1.1 1.3 1.2 1.9 0 1.4 0 1.1-.6-.8-1.3-2.1-1-1.7-1.7-2.1c-.8-.5-1.9-.7-2.8-1-.7-.3-1.7-.3-2.6-.9s-1.3-1-1.3-1 .3.8.2 1.1c-.1.2 0 .5.1.7 0 .1-.4-.4-.4-.5-.2-.3-.3-.6-.3-.6 0 .2-.1.4-.1.6 0 .3.1.5.1.5 0-.1-.2-.1-.2-.3l-.2-.6s0 1.4-.1 1.2c0-.2-.5-.9-.5-.9l.1 1c.1.2-.6-.6-.6-.6.1.2 0 .4-.1.5 0 .2 0 .1-.1.4 0 .1-.1-.2-.3-.4l-.2-.4s-.3.3-.3.5.1.9-.1 1.4c-.2.4-.2 1.1-.1 1.5.1.3.3.5.2.5 0 0-.1 0-.3-.1-.3-.1-.2-.1-.4-.2l.2.8c.1.3.5.5.2.4s-.6.1-.9-.2c0 0 .1.5.1.8.1.4.2.7.1.6 0 0-.2-.1-.4-.3s-.3-.4-.3-.4-.2.8 0 1.2.3.5 0 .4c-.2-.1-.9.1-1-.4-.2-.5-.4-.8-.4-.8l-.3 1.2c-.1.4-.5.2-.7.5-.2.2-.3.7-.3.7 0 .1.5.4.9 1 .2.4.3.8.4 1.3.2 1-.3 1.8-.3 1.6 0-.8-.3-.8-.3-1.3v-.3c-.5.1-1 0-1.1-.7-.2-.6-.5-.7-.5-.8 0 0-.1.5-.8.7-.6.2-1.1 0-1.5.4-.5.5-.4 1-.4 1-.2-.3-.4-1.1.1-1.6.2-.2.3-.4.4-.6.3-.3.6-.6 1.1-.6.6 0 .5-.7.5-.7-.5 0-1.3 0-1.3-.7 0-.2-.3-.2-.8 0-.4.2-.4.9-.4.9s-.3-1 .1-1.3c.6-.4.9-.5 1.3-.3.2.1.6.3.8.5.4.3 1 .3 1.3.1s.8-.5.9-1c0-.2.1-.5.2-.7.1-.7 0-1.5.1-2.1.1-.7.7-2.1 0-2.6-.5-.4-.7-.5-1-.4 0 0-.8.4-.8.7-.1.3.1.4.3.6.3.1.3.3.6.5s.6.2.6 1c0 .2.2.3 0 1-.2.4-.5.5-.6.6 0 0 .1-.3.2-.8 0-.3 0-.5-.1-.5-.8-.4-.3-.7-1.1-1-.3-.1-.3-.3-.3-.3s.1.2.1.6c0 .2-.1.1-.1.3 0 .6-.1.5-.1.7 0-.1 0 0-.2-.5-.1-.5-.2-.2-.3-.4s-.1-.7-.1-.7-.2.5-.5.8c-.1.1-.3.1-.5.2-.5.3-.7.7-.5 1.3 0 0-.5-.5-.4-1 .1-.3.3-.4.4-.6.1-.1 0-.4.2-.6.4-.5.5-.3.7-.6l.2-.2s-.3.2-.7.1c-.5-.1-.4-.5-.7-.5-.5 0-.6.5-.3 1-.7-.4-.6-1.6.3-1.6.5 0 .5.1.9.1s.4.1.8.1 1.3-.5.9-.5-.6-.5-1.1-1c-.5-.4-.3-.4-.9-1s-.8-.5-.7-.7l.3-.9c0-.1-.1-.1-.3 0h-.5s0-.2.1-.3c.1-.2.4-.3.4-.3h-.8c-.1 0 0-.2.1-.4 0-.1.3-.3.6-.4.6-.2 1.3.6 1.7-.1.2-.3.1-.2.1-.2-.8.2-1.3-.4-2-.4 0 0-.1.5-.6.8s-.8.4-.9.8c-.1.5-.5 1.3-.4 1.6s.5.8.5.8-1.1 0-1.6-.4c-.5-.5-.6-.9-.7-1.6l-.1-.7s-.7-.2-.5-1.3a6.2 6.2 0 0 1 1.1-2.6c.5-.7 1.5-1.6 2.6-2.1 1.1-.6 1.6-.7 2.1-1.2l.6-.5s-.1-2.2-1.3-4.2c-1.3-2-3.3-4.3-3.8-5.2-.5-.8-.4-.8-.4-1.2.1-.4.1-.9.1-.9s.2 0 .4.3l.8.8.1-.1s-.7-.6-1.1-1.6c-.3-1-.5-1.5-.3-2.9.2-1.5.3-1.9.3-2.8 0-1 0-1.5.3-1.5.2 0 .6.3.8.8s.2.8.3.7.1-1.1 0-2-.3-1.8-.2-2.4.4-1.1.4-1.1.5-2.8.9-3.8l1.2-3.2c.2-.6.3-.6.3-.6s.5.1.7.5.2.9.2 1.4-.4 1.5-.4 1.5c.4-.7.8-1 1-1.1.3-.1.4 0 .6.5.1.3.1 1.1 0 1.7-.2 1.1-.9 2-1.3 3 .1-.1.4-.7.8-1.1.2-.2.3-.4.4-.4.2-.1 1.2.2 1.2 1 0 1-1.4 3.5-1.4 3.5.1-.1 1-1.7 1.1-2 .1-.2.3-.2.5-.1.3.1.9.3.7 1.1-.3 1-1.4 2.8-1.4 2.8s.8-1.3 1-1.4.5-.2.7-.1.2.3-.2 1.1c.3 1.2-.7 2.4-1 2.5"/><path d="M-184.1 115s-.1.2.1.4c0 0 0-.3.2-.4s-.3-.2-.3 0m18.5-3c0 .1.6 0 .6.1s-.2.2-.5.4v.3c.4-.1.9-.1 1-.1.2.2-.2.5-1.2.6v.2c.6 0 1.3.2-.3.4l-.2.3c.3 0 .6 0 .7.1.2.2-.2.2-.6.1l-.1.2a3.04 3.04 0 0 1 .7.5c.5.4-.5.1-1.2 0-.2 0-.2.2-.1.3l1.4.8c.3.3.2.5.5.7.4.3.8.3 1.2.5.4.3.7.8 1.1 1.1l2 1.2c.8.5 1.8.9 2.6 1.3l1.3.8c.3.2.5.4.8.6-1 0-1.5.1-2 .2 1.9 1.2 3.8 2 5.3 2.4l1.2.6-.4-.1v.2l-.3-.2v.2a.76.76 0 0 0-.4-.2c-.7-.2-.7-.3-1.2-.3-.1 0-.1.1 0 .2l.6.3-.1.1s-.1 0-.2-.1c-.5-.2-1.5-.8-1.6-.9-.5-.3-.9-.4-1.4-.6-1-.5-1.1-.7-1.2-.7-.4 0-.6.1-.6.3-.1.2-.1.4.7.8-.6-.2-.9.1-1.3-.3-.5-.5-.7-1.1-1.1-1.6l-1.1-1.3c-.3-.3-1.1-.2-.8.4.3.5 1.3 1.8 1.2 2.3-.7-1-1.7-3-2.3-3.5-.5-.4-1-.6-1.9-.9-.6-.2-1.1-.3-1.4-.5-1-.3-1.2-.2-1.9-.6-1.2-.6-1.5-1-2.1-1.5-.1.5.3.9.2 1.5-.2-.1-.4-.7-.6-.8 0 .2 0 .5-.1.8-.1-.2-.3-.5-.4-.6 0 .3-.1.7 0 1-.2-.4-.4-.5-.6-.7.1.2.1.8.1 1-.2-.1-.3-.4-.5-.5 0 .2-.1.6-.1.9-.2-.3-.2-.6-.3-.6-.2.2-.4.5-.5.6-.1.6.1 1.1-.2 1.8-.2.5-.1 1 0 1.5-.1 0-.6-.3-.7-.3.1.4.2.9.4 1.3-.3 0-.5-.3-.7-.3a1.71 1.71 0 0 0 .1 1.2c-.2-.1-.3-.4-.5-.7-.2.6-.4 1.4-.1 2-.7 0-.7-.3-.9-.7-.1-.2-.2-.5-.3-.7-.2.4-.3 1.2-.5 1.6-.2.2-.5.3-.7.5s-.5.8-.4 1c.3.2.7.5 1 .9.2.2.3.7.3.9.1.5.2.8.1 1.2-.1-.5-.2-.4-.2-.6-.1-.4-.1-.7-.1-.6-.2.2-.9.1-1-.3-.3-.8-.4-.9-.8-1.3-.2.4-.4 1-1 1-.3 0-.6 0-.9.1-.4.2-.6.3-.8.9 0-.2 0-.8.5-1.1.2-.2.3-.4.5-.6s.4-.2.5-.2c.6 0 .9-.2.9-1-.5-.1-1.2.1-1.3-.3-.1-.5-.1-.7-.4-.6-.2 0-.8.1-1 .6 0-.6.7-.9 1.1-.8.2.1.4.2.5.3.7.6 1.3.5 1.7.4.9-.4 1.3-.8 1.4-1.9.1-.9 0-1.4.1-2.2.1-.5.3-1.1.3-1.7 0-.2 0-.5-.1-.7-.3-.6-1.2-1.1-1.5-.8-.7.5-1.3.9-.8 1.5.1.2.4.3.8.6.2.1.4.2.5.4.1.1.1.4.1.5 0 .2.3.7-.1 1.1.1-.7.1-.8-.2-1.1-.1-.1-.3-.1-.4-.3-.1-.1-.1-.4-.2-.5-.9-.4-.8-.7-1-.8 0 .3-.1.2 0 .6.1.2.1.3 0 .4s-.1.2-.1.4c-.1-.5-.3-.3-.3-.7 0-.5 0-.6-.1-.7-.2.4-.3.7-.5.8-.3.3-.5.3-.7.5-.2.1-.4.3-.4.8-.2-.4 0-.6.4-1 .1-.1 0-.5.3-.7.1-.1.5-.4.7-.5.2-.2.4-.3.5-.6-.1 0-.5.1-.7.1-.5.1-.7-.3-.8-.3-.1-.1-.6-.5-.9.5-.2-.9.6-.9 1.1-.7.3.1.5.1.7.1a.85.85 0 0 0 .7 0c.6-.2.9-.3 1.2-.8a1.22 1.22 0 0 1-1-.6c-.2-.4-.6-.6-.6-.7-.2-.3-.4-.5-.5-.7l-.7-.7c.1-.4.2-.8.4-1.2-.3 0-.6.1-.8.1.1-.2.4-.3.6-.6-.3 0-.7-.1-1 0 .4-.7 1.6.1 2.1-.2.4-.2.5-.6.5-1-1.3.2-1.8-.5-2.4-.4-.1.4-.2.5-.4.7-.3.2-.7.3-.9.6l-.3.6c.1-.5.3-1 .6-1.3 0 0 .4-1-.1-.5 0 0-.8 1.1-.7 2.5-.2.6-.2 1.2.2 1.5 0 0-.4 0-.8-.2-.3-.2-.6-.5-.8-1-.3-.9-.2-1.5-.2-1.5s-.7 0-.5-1.2a5.1 5.1 0 0 1 1.2-2.6c.2-.3.6-.6.9-.8 1.1-.8 2.4-1.3 3.4-2 .5-.3.8-.8.8-.8 0-.2-.2-1.9-.8-3.3-.7-1.4-1.9-3.1-2.7-4.1l-1.7-2.3c-.4-.7-.3-.5-.3-.9V96l1.1 1c.1-.1.4-.1.4-.1s-.2-.2-.4-.5-.5-.5-.6-.8c-.2-.5-.5-1.2-.6-2.2 0-1 .3-2.1.3-3l.1-1.9c.1-.4.2-.2.4 0 .1.3.2.6.4.9.3.6.5.6.6 0 .2-1.4-.2-2.5-.2-3.6 0-.7.1-1.4.4-1.6.2-1.5.5-2.6.8-3.6.4-1.3 1-2.3 1.4-3.8.7.2.8 1.6.3 3.5.5-1.2 1-1.2 1.2-1.3.5 0 .4 1.3.1 2.5-.2.9-.5 1.5-1.1 2.5l.1.1c.5-.7 1.1-1.6 1.3-1.5.5 0 .8.3.8.6-.1 1.1-.8 2.7-1.2 3.7h.1c.6-1 1.2-2.1 1.5-1.9.5 0 .6.3.5.7-.1.8-.8 2-1.2 2.9l.1.1c.3-.4.7-.9 1-1.2.1-.1.3-.1.3-.1.4-.1 0 .6-.5 1.5-.3.5-.9 1.3-1.1 1.6l.1.2c.6-.4 1.6-1.5 1.7-1.4.3.1.4.4.4.6s-.2.5-.3.7c-.3.4-.9.9-1.4 1.5l.2.2c.7-.8 1.7-1.6 1.9-1.4.5.3.3.8 0 1.4-.3.4-.5.8-.8 1.1 0 0 .1.1.1.2.2-.1.4-.3.8-.5.1-.1.3 0 .4.2s0 .4-.2.7c0 0 .1.2.2.2.2-.1.4-.3.5-.3.2.1.3.2.2.4-.1.3-.2.5-.2.6.1.1.1.2.2.1.1-.2.3-.4.4-.4s.1.1.2.2-.1.5-.3.7c-.1.1-.1.2-.2.3 0 0 .1.2.1.1.1-.1.3-.4.4-.4s.1.2.1.2c-.1.1-.3.5-.4.8s.6-.3.5-.2c-.3.3-1 1.3-1.1 1.6-.2-1.2-1-.9-1.5.5-.4 1.3-.7 3.2-1.1 5-.4 1.9-1.2 3.6-1.3 3.8h.3c.5-1.2.8-1.9 1.1-3.4.4-1.7.9-6.2 1.9-6.4.4-.1 0 1.7.4.9.2-.5 1.1-1.6 1.5-2.1.7-.7 1.4-1 2.2-1.5a11.33 11.33 0 0 1 2-.9c1.1-.5 1.1-.7 1.9-1.2.3-.2.4-.2.2.4-.3.7-1 1.8-.1 1.5 1.7-1 2.5-2.1 3.9-2.9.8-.5 1.6-.5 2.5-.9.8-.3 1.6-.8 2.5-1.1l5.8-1.7c.6-.2.6.6.1 1.1-.7.7-1.9 1-2.6 1.3-.2.1 0 .3 0 .3.1 0 1.7-.5 2.2-.5.4-.1.3.5 0 .9-.4.5-1.1 1.1-2.2 1.4-1.2.4-1.8.4-2.6.6a5.07 5.07 0 0 1-1.3.2c-.1 0 0 .2 0 .2l3.5-.2c.3 0 .3.2.2.5-.3.6-.8 1.1-1.7 1.3-1.4.4-3.2.5-3.9.7-.1.1 0 .3 0 .3.7 0 2.9-.2 3.1-.2.4.1.6.5.6.7-.1.2-.3.3-.7.5a10.06 10.06 0 0 1-1.8.4l-2.7.2c-.3.1-.2.4 0 .4 1 .1 2.5-.2 3.1-.1.3 0 .5.2.4.3s-.4.3-.8.4c-.5.1-1.1.1-1.9.2-1 .1-1.9 0-2.5 0-.1 0-.1.3 0 .3 1.2.2 3 .2 3.4.4.1.1.2 1-.5 1.1-.4 0-3.1-.2-3.5-.3-.2 0-.3.4-.1.4 1.1.2 3.5.3 3.5.6-.1 1.1-2 1-3.3.8-.4 0-.4.3 0 .4.7.1 1.2.1 1.5.3.2.1.1.5-.1.6-.3.1-.6.2-1 .2s-.3.3.1.3c.9-.1.9 0 .9.2s-.4.2-.6.3c-.3.1-.2.2-.1.2.5.2.5.5.2.6-.3 0-.6.1-.8.1-.4 0-.2.2 0 .3.5.1 1.2.4-.5.5-.3 0-.2.1-.1.1.4.2 1 .2 1.3.5.5.4-1 .4-1.3.4.3.3 1.4.7 1.4.9 0 .1-1.5-.1-2-.1.2.2.9.5 1.2.8s0 .4-.2.3c-.5-.1-1.2-.4-1.6-.5.5.7 1.8 1.8 1.5 1.9-.5-.4-1-.7-1.4-.8l-.1.2c.5.4 1.3 1 1 1-.5 0-1.3-.1-1.8-.1-.5.1.7.3 1.6.4.5.1.9.1.9.2.2.3-1.2.4-1.3.6l.1.1zm0-.2v.2-.2zm-17.6.6c-.6.5-.5 1-.4 1.1l.1.1s.3.3-.1.5c-.4.3.3-.1.5-.5l.2.4s.1-.2.2-.5c0-.3-.2-.3-.1-.9a3.03 3.03 0 0 1 .7-1.4c.2-.1-.6.8-1.1 1.2" fill="#a78843"/></g><path d="M-187.7 183.5v-2c0-.2 0-.3-.1-.3-.1-.1-.2-.1-.3-.1h-.2s-.1 0-.1-.1v-.1s.1 0 .2-.1h.1c.1 0 .3-.1.4-.1s.2-.1.3-.2.2-.1.3-.1h.1v.8c.2-.3.4-.5.6-.6.1-.1.3-.1.4-.1a.76.76 0 0 1 .4.2c.1.1.2.2.2.3s0 .2-.1.2c-.1.1-.1.1-.2.1 0 0-.1 0-.2-.1s-.3-.1-.4-.1c-.2 0-.3.1-.4.2s-.2.3-.2.5v1.6c0 .3 0 .5.1.6 0 .1.1.2.3.3h.5v.2h-1.9v-.2s.1 0 .1-.1c.1 0 .1-.1.1-.1s.1 0 .1-.1c.1-.1.1-.2.1-.3-.3.1-.2 0-.2-.2m-5.1-.2v-4.1c0-.3 0-.5-.1-.6 0-.1-.1-.2-.2-.3l-.1-.1s-.1 0-.2-.1h-.2v-.2h2.3c.7 0 1.3.2 1.7.5s.6.8.6 1.3-.2.9-.6 1.3-.9.5-1.4.5c-.3 0-.5 0-.6-.1-.2 0-.2-.1-.2-.2v-.1h.6c.5 0 .9-.1 1.2-.3s.4-.6.4-1c0-.5-.2-.9-.5-1.3-.4-.3-.8-.5-1.4-.5-.2 0-.3 0-.4.1s-.1.1-.1.3v4.7c0 .3 0 .5.1.6 0 .1.1.2.3.3.1 0 .2.1.3.1s.2 0 .2.1v.2h-2.4v-.1c0-.1.1-.1.2-.2.1 0 .1 0 .2-.1.1 0 .1-.1.1-.1.1-.1.2-.2.2-.3 0 .1 0 0 0-.3m-5 .7c-.2.2-.4.4-.7.5-.2.1-.5.2-.8.2-.5 0-.8-.2-1.1-.6s-.5-.8-.5-1.4.2-1.2.6-1.6.8-.7 1.4-.7c.2 0 .4 0 .6.1s.4.2.5.3V179c0-.3 0-.5-.1-.6s-.2-.2-.3-.2h-.3l-.1-.1s.1-.1.2-.1h0c.1 0 .1 0 .2-.1.1 0 .2-.1.2-.1.1 0 .2-.1.4-.2.1-.1.2-.1.2-.1h.1v5.8c0 .3 0 .5.1.6s.2.1.3.1h.2s.1 0 .1.1-.1.1-.3.2h-.1c-.2 0-.3.1-.5.1s-.3.1-.3.1h-.1v-.5zm0-.7v-1.6c0-.1 0-.3-.1-.4 0-.1-.1-.2-.2-.3s-.3-.2-.5-.3-.4-.1-.5-.1c-.4 0-.6.2-.9.5-.2.3-.3.7-.3 1.2s.1 1 .5 1.3c.3.4.7.6 1.1.6.3 0 .5-.1.7-.3.2-.1.2-.3.2-.6m-4.8.7c-.2.2-.4.4-.7.5-.2.1-.5.2-.8.2-.5 0-.8-.2-1.1-.6s-.5-.8-.5-1.4.2-1.2.6-1.6.8-.7 1.4-.7c.2 0 .4 0 .6.1s.4.2.5.3V179c0-.3 0-.5-.1-.6s-.2-.2-.3-.2h-.3l-.1-.1s.1-.1.2-.1h0c.1 0 .1 0 .2-.1.1 0 .2-.1.2-.1.1 0 .2-.1.4-.2.1-.1.2-.1.2-.1h.1v5.8c0 .3 0 .5.1.6s.2.1.3.1h.2s.1 0 .1.1-.1.1-.3.2h-.1c-.2 0-.3.1-.5.1s-.3.1-.3.1h-.1v-.5zm0-.7v-1.6c0-.1 0-.3-.1-.4 0-.1-.1-.2-.2-.3s-.3-.2-.5-.3-.4-.1-.5-.1c-.4 0-.6.2-.9.5-.2.3-.3.7-.3 1.2s.2 1 .5 1.3c.3.4.7.6 1.1.6.3 0 .5-.1.7-.3.1-.1.2-.3.2-.6m-9.4.2l2.6-5.6c0-.1.1-.1.1-.1h.1s.1 0 .1.1l2.1 5.5c.1.3.2.5.3.6l.3.3c.1 0 .1 0 .2.1.1 0 .2.1.2.1v.1h-1.2c-.2 0-.5 0-.8.1h-.2v-.1c0-.1.1-.1.2-.2h.1c.1 0 .2-.1.2-.1 0-.1.1-.1.1-.2v-.2c0-.1 0-.1-.1-.2l-.5-1.3c0-.1-.1-.2-.2-.2s-.1-.1-.3-.1h-2.1c-.1 0-.2 0-.2.1-.1 0-.1.1-.2.3l-.5 1c-.1.1-.1.2-.1.3v.2c0 .1 0 .2.1.2.1.1.1.1.3.2h.2c.1 0 .2.1.2.1v.1h-1.8v-.1s.1-.1.2-.1h0c.1 0 .1-.1.2-.1.1-.1.2-.1.2-.3 0-.1.1-.3.2-.5m1.5-1.8h1.9v-.2l-.9-2.2s0-.1-.1-.1h-.2l-.1.1-1 2.2v.2s0 .1.1.1c.2-.1.2-.1.3-.1m27.2-1.2c-.5 0-.9.2-1.2.6-.4.4-.5.9-.5 1.5s.2 1 .5 1.4.7.6 1.2.6v-.6c-.3-.1-.5-.2-.7-.5-.3-.4-.4-.9-.4-1.5h1.1v-.2h-1.1c0-.4.1-.7.3-.9s.4-.3.7-.3h.1v-.1z"/><path d="M-157.1 182.4c0 .6.1 1.1.4 1.5s.6.6 1.1.6c.4 0 .7-.1 1-.4.2-.3.3-.7.3-1.3s-.1-1.1-.4-1.5-.6-.6-1-.6-.7.2-1 .5c-.3.2-.4.6-.4 1.2m-.7.2c0-.6.2-1.1.6-1.5s.9-.6 1.5-.6 1.1.2 1.4.6c.4.4.6.9.6 1.5s-.2 1.1-.6 1.5-.9.6-1.5.6-1.1-.2-1.4-.6c-.4-.4-.6-.9-.6-1.5m-2.6-1.6h-.5v-.1l.2-.2c.1-.1.3-.2.4-.4.1-.1.2-.2.3-.4s.2-.3.2-.3h.1v.9h.8c.2 0 .3 0 .5-.1h.1v.1c0 .1 0 .2-.1.3s-.2.1-.3.1h-1.1v2.6c0 .2.1.4.2.5s.3.2.5.2.4-.1.6-.2c.1 0 .1-.1.1-.1h.1c0 .1-.1.2-.3.3s-.5.2-.8.2c-.4 0-.7-.1-.8-.3-.2-.2-.2-.5-.2-1V181zm-6.5 1.2c0 .6.1 1.1.4 1.5s.6.5 1.1.5c.4 0 .7-.1 1.1-.4.1-.1.2-.1.2-.1h.1v.2l-.2.2a3.04 3.04 0 0 1-.7.5c-.2.1-.5.1-.8.1-.5 0-.9-.2-1.3-.6-.3-.4-.5-.9-.5-1.4 0-.6.2-1.1.5-1.5.4-.4.8-.6 1.3-.6.3 0 .5.1.8.2.2.1.4.3.6.5.1.1.2.3.3.4s.1.3.1.4v.1h-3zm0-.3h1.9c.1 0 .1-.1.1-.2 0-.3-.1-.5-.3-.7s-.4-.3-.7-.3-.5.1-.7.3l-.3.9m-4.3 2.7c-.1-.1-.2-.1-.3-.2s-.1-.2-.1-.4c0-.1 0-.3.1-.4.1-.2.2-.3.4-.5-.2-.1-.3-.3-.4-.5s-.1-.4-.1-.7c0-.4.1-.8.4-1.1s.7-.4 1.1-.4c.3 0 .6.1.8.2.3.1.4.2.5.2s.2 0 .2-.1l.2-.2v-.2c0-.1.1-.1.1-.1s.1 0 .1.1v.1c0 .2 0 .4-.1.6-.1.1-.2.3-.4.4 0 .1.1.1.1.2v.2c0 .4-.1.8-.4 1.1s-.7.4-1.2.4h-.6c-.1 0-.2.1-.3.2s-.1.2-.1.4.1.3.3.4.7.1 1.5.1c.4 0 .7.1.9.2s.3.4.3.7c0 .4-.2.7-.5 1-.4.2-.9.4-1.5.4-.5 0-.9-.1-1.2-.3s-.4-.4-.4-.7c0-.2.1-.3.2-.5 0-.4.2-.5.4-.6m.2-2.9c0 .4.1.8.2 1 .2.2.4.3.7.3s.5-.1.7-.3.2-.5.2-.8a1.69 1.69 0 0 0-.3-1c-.2-.2-.4-.4-.7-.4s-.5.1-.7.3c0 .3-.1.6-.1.9m0 3c-.1.1-.3.1-.3.3-.1.1-.1.3-.1.5 0 .3.1.4.3.6.2.1.5.2.9.2.5 0 .9-.1 1.1-.2.3-.2.4-.4.4-.7 0-.2 0-.3-.1-.3-.1-.1-.2-.1-.4-.1h-.5c-.6-.2-1-.2-1.3-.3m-2.7-1.2v-1.7c0-.3 0-.5-.1-.6s-.2-.1-.3-.1h-.2s-.1 0-.1-.1.1-.1.2-.2h0c.1 0 .1 0 .2-.1.1 0 .1-.1.2-.1s.2-.1.3-.2.2-.1.3-.1h.1v3c0 .2 0 .4.1.5 0 .1.1.2.3.2h.5v.2h-1.9v-.2s.1 0 .1-.1c.1 0 .1-.1.1-.1.1-.1.1-.2.1-.2.1.3.1.1.1-.1m0-4.4c0-.1.1-.2.2-.3s.2-.2.3-.2.1.1.2.2.2.2.2.3-.1.2-.2.3-.2.2-.3.2-.2-.1-.3-.2-.1-.2-.1-.3m-3.2 1.9h-.5v-.1l.2-.2c.1-.1.3-.2.4-.4a1.38 1.38 0 0 0 .3-.4c.1-.2.2-.3.2-.3h.1v.9h.8c.2 0 .3 0 .5-.1h.1v.1c0 .1 0 .2-.1.3s-.2.1-.3.1h-1.1v2.6c0 .2.1.4.2.5s.3.2.5.2.4-.1.6-.2c.1 0 .1-.1.1-.1h.1c0 .1-.1.2-.3.3s-.5.2-.8.2c-.4 0-.7-.1-.8-.3-.2-.2-.2-.5-.2-1V181zm-3.8 3.2v-.9h.1c.1 0 .1.1.1.2s0 .2.1.3c.1.2.2.4.4.6s.3.2.6.2c.2 0 .4-.1.6-.2s.2-.3.2-.6-.3-.6-.9-.8c-.1-.1-.2-.1-.2-.1-.3-.1-.5-.3-.7-.5-.1-.2-.2-.4-.2-.6 0-.3.1-.6.3-.8s.5-.3.9-.3c.3 0 .5 0 .7.1s.2.1.3.3v.6h-.1s-.1 0-.1-.1-.1-.2-.1-.2c-.1-.1-.2-.3-.4-.3-.1-.1-.3-.1-.5-.1s-.4.1-.5.2-.2.2-.2.4c0 .3.4.6 1.1.9.1 0 .1 0 .1.1.3.1.5.3.6.4.1.2.2.4.2.6 0 .4-.1.7-.4 1s-.6.4-1 .4c-.2 0-.5-.1-.8-.2-.1 0-.1-.1-.2-.1h-.1c.1-.3.1-.4.1-.5m-2.6-.1c.1 0 .3.1.5.1.4 0 .7-.1 1.1-.4.1-.1.2-.1.2-.1h.1v.2l-.2.2a3.04 3.04 0 0 1-.7.5c-.2.1-.5.1-.8.1h-.1v-.6zm0-3.6c.3 0 .6.1.8.2s.4.3.6.5c.1.1.2.3.3.4s.1.3.1.4v.1h-1.7v-.2h.8c.1 0 .1-.1.1-.2 0-.3-.1-.5-.3-.7s-.4-.3-.6-.3v-.2zm60.4 1.7c0 .6.1 1.1.4 1.5s.6.5 1.1.5c.4 0 .7-.1 1.1-.4.1-.1.2-.1.2-.1h.1v.2l-.2.2a3.04 3.04 0 0 1-.7.5c-.2.1-.5.1-.8.1-.5 0-.9-.2-1.3-.6-.3-.4-.5-.9-.5-1.4 0-.6.2-1.1.5-1.5.4-.4.8-.6 1.3-.6.3 0 .5.1.8.2.2.1.4.3.6.5.1.1.2.3.3.4s.1.3.1.4v.1h-3zm0-.3h1.9c.1 0 .1-.1.1-.2 0-.3-.1-.5-.3-.7s-.4-.3-.7-.3-.5.1-.7.3c-.2.3-.3.6-.3.9m-2.9 1.6V181h-.6v-.3s.1-.1.2-.1h.4c0-.8.3-1.6.7-2.1.4-.6.9-.9 1.4-.9.1 0 .2 0 .3.1.1 0 .1.1.1.2v.4c0 .1-.1.1-.1.1-.1 0-.1 0-.1-.1v-.1c0-.1-.1-.1-.2-.2-.1 0-.2-.1-.3-.1-.3 0-.5.2-.7.5s-.3.7-.3 1.2v.8h.5c.2 0 .3 0 .4-.1.1 0 .2-.1.2-.1 0 .1 0 .2-.1.3s-.1.2-.2.2h-.7v2.5c0 .3 0 .5.1.5 0 .1.1.2.2.2h.2c.1 0 .2.1.2.1v.1h-1.8v-.2l.1-.1h.1s.1 0 .1-.1c.1-.1.1-.1.1-.2-.2.4-.2.3-.2 0m-2.4 0v-1.7c0-.3 0-.5-.1-.6s-.2-.1-.3-.1h-.2s-.1 0-.1-.1.1-.1.2-.2h0c.1 0 .1 0 .2-.1.1 0 .1-.1.2-.1s.2-.1.3-.2.2-.1.3-.1h.1v3c0 .2 0 .4.1.5 0 .1.1.2.3.2h.5v.2h-1.9v-.2s.1 0 .1-.1c.1 0 .1-.1.1-.1.1-.1.1-.2.1-.2.1.3.1.1.1-.1m0-4.4c0-.1.1-.2.2-.3s.2-.2.3-.2.1.1.2.2.2.2.2.3-.1.2-.2.3-.2.2-.3.2-.2-.1-.3-.2-.1-.2-.1-.3m-2.5 4.4V179c0-.3 0-.5-.1-.6s-.2-.1-.3-.1h-.2v-.1c0-.1.1-.1.2-.2h.2c.1 0 .1 0 .2-.1.1 0 .2-.1.4-.2.1-.1.2-.1.2-.1h.1v.2c0 .4-.1.9-.1 1.4v4.3c0 .3 0 .5.1.5 0 .1.1.2.2.2 0 0 .1 0 .2.1h.2v.2h-1.8v-.2l.1-.1h.1c.1 0 .1-.1.1-.1.1-.1.1-.1.1-.2.1 0 .1-.2.1-.4m-5.6 0v-2c0-.2 0-.3-.1-.3-.1-.1-.2-.1-.3-.1h-.2s-.1 0-.1-.1v-.1s.1 0 .2-.1h.1c.1 0 .3-.1.4-.1s.2-.1.3-.2.2-.1.3-.1h.1v.8c.2-.3.4-.5.6-.6.1-.1.3-.1.4-.1a.76.76 0 0 1 .4.2c.1.1.2.2.2.3s0 .2-.1.2c-.1.1-.1.1-.2.1 0 0-.1 0-.2-.1s-.3-.1-.4-.1c-.2 0-.3.1-.4.2-.1.2-.2.3-.2.5v1.6c0 .3 0 .5.1.6 0 .1.1.2.3.3h.5v.2h-1.9v-.2s.1 0 .1-.1c.1 0 .1-.1.1-.1s.1 0 .1-.1c.1-.1.1-.2.1-.3-.2.1-.2 0-.2-.2m-2.4.5c-.2.2-.4.4-.6.5s-.5.2-.7.2c-.4 0-.8-.1-1-.4-.2-.2-.3-.6-.3-1.2v-2c0-.1-.1-.1-.1-.1h-.2c-.1 0-.2-.1-.2-.1 0-.1.1-.1.2-.1h.1c.3 0 .5 0 .7-.1h.2v2.4c0 .4.1.7.2 1 .2.2.4.3.7.3s.5-.1.7-.3.3-.4.3-.7v-2.3c0-.1-.1-.1-.1-.1h-.2c-.1 0-.2 0-.2-.1 0 0 0-.1.1-.1h.3c.1 0 .3 0 .5-.1.2 0 .3-.1.3-.1h.1v3.5s.1.1.2.1h.2c.1 0 .2 0 .2.1v.1h-.2l-.8.1h-.1c-.1 0-.1 0-.2-.1v-.4zm-7.2-1.6c0 .6.1 1.1.4 1.5s.6.6 1.1.6c.4 0 .7-.1 1-.4.2-.3.3-.7.3-1.3s-.1-1.1-.4-1.5-.6-.6-1-.6-.7.2-1 .5c-.3.2-.4.6-.4 1.2m-.7.2c0-.6.2-1.1.6-1.5s.9-.6 1.5-.6 1.1.2 1.4.6c.4.4.6.9.6 1.5s-.2 1.1-.6 1.5-.9.6-1.5.6-1.1-.2-1.4-.6c-.4-.4-.6-.9-.6-1.5m-3.9-1.4c0-.1-.1-.2-.1-.2-.1-.1-.1-.1-.2-.1s-.1-.1-.1-.1v-.1h1.6v.1c0 .1-.1.1-.1.1h-.1c-.1 0-.2.1-.2.1s-.1.1-.1.2v.2c0 .1 0 .1.1.2l.9 2.2.6-1.7c0-.1.1-.3.1-.4v-.4c0-.1 0-.2-.1-.2 0-.1-.1-.1-.2-.1h-.1c-.1 0-.2-.1-.2-.1v-.1h1.3v.2h-.3l-.1.1c0 .1-.1.1-.1.2l-1.8 5c0 .1-.1.1-.1.1h-.5l-.1-.1.5-.5.3-.6c.1-.2.1-.3.1-.5 0-.1-.1-.3-.2-.6v-.1l-.8-2.8z"/></svg>